Coordinates
version=1
nRows=13
nColumns=36
inDegrees=yes

Units are S.I. units (second, meters, Newtons, ...)
If the header above contains a line with 'inDegrees', this indicates whether rotational values are in degrees (yes) or radians (no).

endheader
time	pelvis_tilt	pelvis_list	pelvis_rotation	pelvis_tx	pelvis_ty	pelvis_tz	hip_flexion_r	hip_adduction_r	hip_rotation_r	knee_angle_r	knee_angle_r_beta	ankle_angle_r	subtalar_angle_r	mtp_angle_r	hip_flexion_l	hip_adduction_l	hip_rotation_l	knee_angle_l	knee_angle_l_beta	ankle_angle_l	subtalar_angle_l	mtp_angle_l	lumbar_extension	lumbar_bending	lumbar_rotation	arm_flex_r	arm_add_r	arm_rot_r	elbow_flex_r	pro_sup_r	arm_flex_l	arm_add_l	arm_rot_l	elbow_flex_l	pro_sup_l
      1.38000000	    -12.86982734	     -2.53210103	      0.79554670	     -0.42604042	      1.04614443	     -0.58845323	     36.36639197	     -3.77110853	     -0.86633945	     13.83849951	      0.24152738	    -31.86579914	     -4.06332134	     -6.71333949	     36.93095655	     -7.65642841	     -0.70281205	     11.51391735	      0.20095577	    -33.22519102	      1.31289666	     -6.71333949	    -11.52726652	      4.60652564	     -5.83796664	     14.42977128	    -46.33773632	      2.18509791	     87.18724971	    101.42030324	     -1.85511057	    -48.48881472	     -7.23312884	     92.00259426	     95.45006273
      1.39000000	    -12.41408237	     -2.49757981	      0.96866518	     -0.41496305	      1.02463570	     -0.58893794	     36.84001732	     -4.04489229	     -0.91098579	     15.42428543	      0.26920457	    -32.26580586	     -4.37187487	     -6.75631606	     37.56553749	     -7.62410157	     -0.58069353	     12.76203022	      0.22273945	    -33.17527853	      1.13390766	     -6.75631606	    -12.22281624	      4.64074762	     -6.08434992	     11.45601317	    -46.24551499	      0.60912027	     86.82656227	    100.93753752	     -5.10032400	    -47.85036841	     -8.70064013	     91.80324207	     95.21975248
      1.40000000	    -11.95817937	     -2.45893098	      1.04052805	     -0.40424285	      1.00198342	     -0.58919424	     37.50721842	     -4.25400073	     -0.93859131	     17.52434239	      0.30585747	    -32.58268293	     -4.20805119	     -6.79543897	     38.33840667	     -7.63459679	     -0.32037179	     14.56400774	      0.25418989	    -33.19370178	      1.22400540	     -6.79543897	    -12.93022410	      4.66420446	     -6.20535722	      8.60952905	    -46.35440653	     -0.46226472	     86.40412802	    100.16601736	     -8.15046362	    -47.48516438	     -9.58095038	     91.51880896	     94.60105622
      1.41000000	    -11.32619950	     -2.47044603	      1.03879244	     -0.39349900	      0.97848438	     -0.58912462	     38.07480669	     -4.30058447	     -0.88173146	     19.90200087	      0.34735544	    -32.81525180	     -4.05698389	     -6.85101579	     39.02230425	     -7.68892378	      0.27996572	     16.85195443	      0.29412209	    -33.15154416	      1.26634878	     -6.85101579	    -14.01270548	      4.68890025	     -6.33774712	      5.66929617	    -46.15893093	     -2.24482309	     86.18697132	    100.18141256	    -11.56661768	    -46.80946287	    -11.36289399	     91.59326355	     94.40283292
      1.42000000	    -10.83671386	     -2.49269005	      1.07142879	     -0.38271802	      0.95353657	     -0.58920102	     39.03163401	     -4.43752421	     -1.06103471	     22.52648369	      0.39316131	    -33.93989869	     -2.84330929	     -6.88947485	     40.11433564	     -7.73202050	      0.71590550	     19.53315277	      0.34091783	    -33.93776636	      1.97901783	     -6.88947485	    -14.72397069	      4.72331186	     -6.44084245	      2.85963869	    -46.21367836	     -3.26573456	     85.52683298	     99.60713746	    -14.52453012	    -46.40335584	    -12.08887865	     91.24708048	     93.79538075
      1.43000000	    -10.34721487	     -2.46701424	      1.13092749	     -0.37220021	      0.92766392	     -0.58944039	     40.16691297	     -4.63863292	     -1.02948640	     25.98240198	      0.45347846	    -32.96319279	     -1.78533985	     -7.03728094	     41.32734119	     -7.61229816	      1.56388484	     23.11656046	      0.40346009	    -32.55543957	      1.93644794	     -7.03728094	    -15.59274244	      4.72354140	     -6.40998556	     -0.34814831	    -46.15790566	     -5.32428449	     84.76816374	    104.40911062	    -17.28512680	    -45.92197558	    -13.04961303	     90.59150672	     96.44180349
      1.44000000	    -10.00952691	     -2.36479722	      1.12107467	     -0.36248167	      0.90073091	     -0.58950405	     41.76315225	     -4.78711624	     -0.78930374	     31.69908037	      0.55325332	    -25.46065781	     -2.83486755	     -7.12003179	     43.00279236	     -7.37016939	      2.44314316	     29.06938360	      0.50735646	    -24.55710822	      0.15242164	     -7.12003179	    -16.27097535	      4.61599819	     -6.39976393	     -3.19660512	    -46.35035350	     -5.97719610	     84.31586348	     99.80190187	    -19.98085170	    -45.74598831	    -13.27430151	     90.31912226	     93.00651262
      1.45000000	     -9.47911895	     -2.24230479	      1.04766026	     -0.35315622	      0.87311927	     -0.58947502	     43.40270935	     -4.92166480	     -0.91871470	     39.41194985	      0.68786829	    -11.72356171	     -5.27458710	     -7.22328404	     44.86597286	     -7.05678341	      2.90518359	     37.23155112	      0.64981315	    -10.61919669	     -3.01810617	     -7.22328404	    -17.20472192	      4.46165832	     -6.29505271	     -5.92354076	    -46.56753607	     -6.56089587	     83.86230299	     93.79299623	    -22.51136649	    -45.68401672	    -13.23460048	     90.12612206	     88.39920594
      1.46000000	     -8.61278287	     -2.30282223	      0.88754385	     -0.34449442	      0.84598664	     -0.58933389	     44.72315564	     -5.11672972	     -1.63933614	     46.82630845	      0.81727326	      2.95222944	     -4.10230780	     -7.28921604	     46.74741057	     -7.12053512	      2.69962755	     45.64387886	      0.79663597	      4.08286912	     -3.05076129	     -7.28921604	    -18.73961304	      4.49066319	     -6.01544679	     -8.76671452	    -46.61712120	     -7.94807446	     83.47848915	     91.66892217	    -25.18766479	    -45.34138624	    -13.99738075	     90.02370447	     86.62947685
      1.47000000	     -8.71876027	     -2.43259349	      0.58465222	     -0.33914299	      0.81957440	     -0.58892741	     47.42561331	     -4.80080521	     -1.32210041	     52.86001354	      0.92258128	     10.21767025	     -6.48935044	     -7.31138522	     50.02020628	     -7.04654398	      2.96189316	     52.74656437	      0.92060122	     11.10889501	     -6.10229141	     -7.31138522	    -19.50066827	      4.55203934	     -5.64505787	    -10.28834990	    -46.60792366	     -7.98140257	     81.73558477	     90.67494439	    -26.86721031	    -44.99655973	    -13.66649483	     88.56691036	     85.74325508
      1.48000000	     -9.80888574	     -2.65553434	      0.23190635	     -0.33680005	      0.79479582	     -0.58873787	     51.83769277	     -4.33268139	     -0.50986077	     58.64250848	      1.02350485	     13.81816144	     -7.55471123	     -7.32336261	     54.65457153	     -7.13140013	      3.65178268	     59.06852971	      1.03094033	     14.55544721	     -7.55503109	     -7.32336261	    -19.87019961	      4.81568246	     -5.36574636	    -11.28019676	    -46.24720390	     -8.14989847	     79.79645748	     90.41525398	    -28.19624024	    -43.97040354	    -13.75367446	     86.58172656	     85.40779909
      1.49000000	    -11.65439038	     -2.86009485	     -0.13364996	     -0.33481806	      0.77171376	     -0.58876224	     57.64912581	     -3.83548832	      0.46568237	     64.99265469	      1.13433581	     14.87857183	     -7.90652748	     -7.32634866	     60.30078411	     -7.13919398	      4.72562326	     65.33657546	      1.14033836	     15.95790230	     -7.95516034	     -7.32634866	    -19.58151331	      4.96706346	     -5.17542224	    -11.97824874	    -45.33968340	     -8.22285255	     77.07541098	     91.14668624	    -29.26591674	    -42.44625804	    -13.89265433	     84.06393652	     85.90070838
      1.50000000	    -13.01855393	     -3.06173416	     -0.45658285	     -0.33102265	      0.75172336	     -0.58907588	     62.74022593	     -3.60753344	      0.94161225	     71.17200788	      1.24218587	     15.19096891	     -7.46699549	     -7.36847074	     65.14654458	     -7.03483411	      5.82696994	     71.33149703	      1.24496948	     17.20783948	     -7.34421628	     -7.36847074	    -19.78307168	      4.93331581	     -5.81253474	    -10.71559298	    -44.25172925	     -6.89884103	     71.82109939	    104.39155695	    -31.42644122	    -40.06533726	    -15.89243873	     80.48604062	     98.17668054
